<svg xmlns="http://www.w3.org/2000/svg" height="24px" width="24px" viewBox="0 0 24 24" fill="#3b3b3b">
  <path d="M0 0h24v24H0V0z" fill="none"/>
  <path d="M12 2C6.48 2 2 5.58 2 9.5c0 2.53 1.53 4.74 3.78 6.01C5.43 17.09 6 18 7 18h10c1 0 1.57-.91 1.22-2.49C20.47 14.24 22 12.03 22 9.5 22 5.58 17.52 2 12 2zm0 12H8v-2h4v2zm4-4H8V8h8v2z"/>
  <path d="M15.5 11c-.83 0-1.5-.67-1.5-1.5S14.67 8 15.5 8 17 8.67 17 9.5 16.33 11 15.5 11zm-7 0C7.67 11 7 10.33 7 9.5S7.67 8 8.5 8 10 8.67 10 9.5 9.33 11 8.5 11zM12 13c-1.1 0-2 .9-2 2h4c0-1.1-.9-2-2-2z"/>
</svg>